<?xml version="1.0" standalone="no"?>
<!DOCTYPE svg PUBLIC "-//W3C//DTD SVG 20010904//EN"
 "http://www.w3.org/TR/2001/REC-SVG-20010904/DTD/svg10.dtd">
<svg version="1.0" xmlns="http://www.w3.org/2000/svg"
 width="370.000000pt" height="342.000000pt" viewBox="0 0 370.000000 342.000000"
 preserveAspectRatio="xMidYMid meet">
    <g transform="translate(0.000000,342.000000) scale(0.100000,-0.100000)"
fill="#ff0000" stroke="none">
        <path d="M1635 3305 c-370 -61 -657 -206 -916 -464 -242 -243 -393 -530 -455
-866 -28 -151 -26 -431 4 -583 104 -519 430 -944 897 -1167 521 -250 1129
-204 1620 123 137 91 336 291 428 430 120 180 203 375 249 585 26 116 36 427
18 550 -51 359 -209 675 -466 931 -112 113 -248 215 -371 278 l-81 42 -59 -18
c-187 -58 -364 -229 -429 -415 -25 -72 -48 -210 -38 -235 3 -7 22 -17 42 -20
59 -10 202 -68 288 -117 94 -52 232 -186 283 -271 18 -32 46 -95 62 -140 156
-457 -92 -967 -544 -1116 -505 -167 -1017 129 -1170 676 -18 67 -21 104 -21
272 0 179 2 203 26 290 126 464 431 801 896 992 184 75 467 129 596 114 50 -6
50 -6 24 9 -46 26 -227 83 -333 105 -133 28 -420 36 -550 15z"/>
    </g>
</svg>